<mxfile host="app.diagrams.net" modified="2023-10-17T04:31:08.872Z" agent="Mozilla/5.0 (Windows NT 10.0; Win64; x64; rv:109.0) Gecko/20100101 Firefox/118.0" etag="LtziNp4fhlSZokWjvBDa" version="22.0.4" type="github">
  <diagram id="R2lEEEUBdFMjLlhIrx00" name="Page-1">
    <mxGraphModel dx="880" dy="470" grid="1" gridSize="10" guides="1" tooltips="1" connect="1" arrows="1" fold="1" page="1" pageScale="1" pageWidth="850" pageHeight="1100" math="0" shadow="0" extFonts="Permanent Marker^https://fonts.googleapis.com/css?family=Permanent+Marker">
      <root>
        <mxCell id="0" />
        <mxCell id="1" parent="0" />
        <mxCell id="o0Y0QcQrRFIEaV-jrJR--15" style="edgeStyle=orthogonalEdgeStyle;rounded=0;orthogonalLoop=1;jettySize=auto;html=1;exitX=0.5;exitY=1;exitDx=0;exitDy=0;" edge="1" parent="1" source="o0Y0QcQrRFIEaV-jrJR--6" target="o0Y0QcQrRFIEaV-jrJR--14">
          <mxGeometry relative="1" as="geometry" />
        </mxCell>
        <mxCell id="o0Y0QcQrRFIEaV-jrJR--6" value="start" style="ellipse;whiteSpace=wrap;html=1;" vertex="1" parent="1">
          <mxGeometry x="365" y="40" width="120" height="80" as="geometry" />
        </mxCell>
        <mxCell id="o0Y0QcQrRFIEaV-jrJR--19" style="edgeStyle=orthogonalEdgeStyle;rounded=0;orthogonalLoop=1;jettySize=auto;html=1;exitX=0.5;exitY=1;exitDx=0;exitDy=0;" edge="1" parent="1" source="o0Y0QcQrRFIEaV-jrJR--14" target="o0Y0QcQrRFIEaV-jrJR--18">
          <mxGeometry relative="1" as="geometry" />
        </mxCell>
        <mxCell id="o0Y0QcQrRFIEaV-jrJR--14" value="&lt;div&gt;masukan&lt;/div&gt;&lt;div&gt;bilangan&lt;br&gt;&lt;/div&gt;" style="shape=parallelogram;perimeter=parallelogramPerimeter;whiteSpace=wrap;html=1;fixedSize=1;" vertex="1" parent="1">
          <mxGeometry x="365" y="220" width="120" height="60" as="geometry" />
        </mxCell>
        <mxCell id="o0Y0QcQrRFIEaV-jrJR--23" style="edgeStyle=orthogonalEdgeStyle;rounded=0;orthogonalLoop=1;jettySize=auto;html=1;exitX=1;exitY=0.5;exitDx=0;exitDy=0;entryX=0;entryY=0.5;entryDx=0;entryDy=0;" edge="1" parent="1" source="o0Y0QcQrRFIEaV-jrJR--18" target="o0Y0QcQrRFIEaV-jrJR--20">
          <mxGeometry relative="1" as="geometry" />
        </mxCell>
        <mxCell id="o0Y0QcQrRFIEaV-jrJR--18" value="bil mod 2=0" style="rhombus;whiteSpace=wrap;html=1;" vertex="1" parent="1">
          <mxGeometry x="385" y="350" width="80" height="80" as="geometry" />
        </mxCell>
        <mxCell id="o0Y0QcQrRFIEaV-jrJR--20" value="ganjil" style="shape=parallelogram;perimeter=parallelogramPerimeter;whiteSpace=wrap;html=1;fixedSize=1;" vertex="1" parent="1">
          <mxGeometry x="600" y="360" width="120" height="60" as="geometry" />
        </mxCell>
        <mxCell id="o0Y0QcQrRFIEaV-jrJR--25" style="edgeStyle=orthogonalEdgeStyle;rounded=0;orthogonalLoop=1;jettySize=auto;html=1;" edge="1" parent="1" source="o0Y0QcQrRFIEaV-jrJR--21">
          <mxGeometry relative="1" as="geometry">
            <mxPoint x="420" y="630" as="targetPoint" />
          </mxGeometry>
        </mxCell>
        <mxCell id="o0Y0QcQrRFIEaV-jrJR--21" value="genap" style="shape=parallelogram;perimeter=parallelogramPerimeter;whiteSpace=wrap;html=1;fixedSize=1;" vertex="1" parent="1">
          <mxGeometry x="360" y="510" width="120" height="70" as="geometry" />
        </mxCell>
        <mxCell id="o0Y0QcQrRFIEaV-jrJR--22" value="end" style="ellipse;whiteSpace=wrap;html=1;" vertex="1" parent="1">
          <mxGeometry x="360" y="630" width="120" height="80" as="geometry" />
        </mxCell>
        <mxCell id="o0Y0QcQrRFIEaV-jrJR--24" style="edgeStyle=orthogonalEdgeStyle;rounded=0;orthogonalLoop=1;jettySize=auto;html=1;exitX=0.5;exitY=1;exitDx=0;exitDy=0;entryX=0.558;entryY=-0.05;entryDx=0;entryDy=0;entryPerimeter=0;" edge="1" parent="1">
          <mxGeometry relative="1" as="geometry">
            <mxPoint x="423" y="430" as="sourcePoint" />
            <mxPoint x="424.96000000000004" y="507" as="targetPoint" />
            <Array as="points">
              <mxPoint x="425" y="430" />
            </Array>
          </mxGeometry>
        </mxCell>
      </root>
    </mxGraphModel>
  </diagram>
</mxfile>
